<svg width="800" height="800" viewBox="0 0 800 800" fill="none" xmlns="http://www.w3.org/2000/svg">
<path d="M400.451 262.065C392.823 262.065 386.657 255.885 386.657 248.271V206.891C386.657 199.277 392.823 193.097 400.451 193.097C408.079 193.097 414.245 199.277 414.245 206.891V248.271C414.245 255.885 408.079 262.065 400.451 262.065Z" fill="#E6E7E8"/>
<path d="M340.528 89.8773L400.446 0L460.378 89.8773C491.027 135.864 463.895 200.884 408.915 206.472C406.129 206.748 403.301 206.9 400.446 206.9C397.591 206.9 394.777 206.748 391.991 206.472C336.997 200.884 309.866 135.864 340.528 89.8773Z" fill="#F0C419"/>
<path d="M579.763 370.068V289.654C579.763 266.799 561.24 248.274 538.383 248.274H262.518C239.664 248.274 221.138 266.797 221.138 289.654V314.868C221.138 343.682 242.201 369.42 270.89 372.151C303.802 375.283 331.485 349.489 331.485 317.24V383.861C331.485 406.261 348.257 426.358 370.644 427.53C394.507 428.771 414.245 409.792 414.245 386.206V466.621C414.245 489.021 431.017 509.118 453.404 510.29C477.267 511.531 497.005 492.552 497.005 468.966V372.414C497.005 396 516.742 414.98 540.605 413.738C562.991 412.566 579.763 392.469 579.763 370.068Z" fill="#FAC176"/>
<path d="M540.608 413.73C516.745 414.985 497.008 396.006 497.008 372.406V468.958C497.008 492.559 477.256 511.538 453.393 510.282C431.021 509.11 414.248 489.027 414.248 466.627V386.198C414.248 409.799 394.496 428.778 370.633 427.522C348.261 426.35 331.488 406.267 331.488 383.867V317.232C331.488 349.495 303.791 375.287 270.894 372.144C262.756 371.372 255.334 368.584 248.728 364.558V800H565.972V402.338C559.229 408.833 550.525 413.206 540.608 413.73Z" fill="#FDD7AD"/>
<path d="M400.451 110.338L429.706 138.615C445.871 154.243 445.871 179.553 429.706 195.181C413.554 210.795 387.346 210.795 371.194 195.181C355.029 179.553 355.029 154.243 371.194 138.615L400.451 110.338Z" fill="#E57E25"/>
</svg>
